<?xml version="1.0" encoding="UTF-8" standalone="no"?>
<!-- Created with Inkscape (http://www.inkscape.org/) -->

<svg
   version="1.1"
   id="svg2"
   xml:space="preserve"
   width="2264.4219"
   height="152.87466"
   viewBox="0 0 2264.4218 152.87466"
   xmlns="http://www.w3.org/2000/svg"
   xmlns:svg="http://www.w3.org/2000/svg"><defs
     id="defs6"><rect
       x="339.08368"
       y="705.20721"
       width="427.8277"
       height="187.16302"
       id="rect37604" /><clipPath
       clipPathUnits="userSpaceOnUse"
       id="clipPath16"><path
         d="M 0,595.28 H 841.89 V 0 H 0 Z"
         id="path14" /></clipPath></defs><g
     id="g8"
     transform="matrix(1.3333333,0,0,-1.3333333,-115.0732,457.06966)"><g
       id="g10"
       transform="translate(-9.7792541e-5,-12.094946)"><g
         id="g12"
         clip-path="url(#clipPath16)"><g
           id="g18"
           transform="translate(302.832,251.165)"><path
             d="m 0,0 c -3.691,0 -6.701,3.508 -6.701,7.828 0,4.305 3.01,7.826 6.701,7.826 3.717,0 6.711,-3.521 6.711,-7.826 C 6.711,3.508 3.717,0 0,0 m 0,17.273 c -5.328,0 -9.686,-4.222 -9.686,-9.445 0,-5.23 4.358,-9.441 9.686,-9.441 5.367,0 9.725,4.211 9.725,9.441 0,5.223 -4.358,9.445 -9.725,9.445"
             style="fill:#4d9523;fill-opacity:1;fill-rule:nonzero;stroke:none"
             id="path20" /></g><g
           id="g22"
           transform="translate(544.2031,251.165)"><path
             d="m 0,0 c -3.688,0 -6.695,3.508 -6.695,7.828 0,4.305 3.007,7.826 6.695,7.826 3.701,0 6.723,-3.521 6.723,-7.826 C 6.723,3.508 3.701,0 0,0 m 0,17.273 c -5.346,0 -9.688,-4.222 -9.688,-9.445 0,-5.23 4.342,-9.441 9.688,-9.441 5.359,0 9.707,4.211 9.707,9.441 0,5.223 -4.348,9.445 -9.707,9.445"
             style="fill:#4d9523;fill-opacity:1;fill-rule:nonzero;stroke:none"
             id="path24" /></g><g
           id="g26"
           transform="translate(674.1133,251.165)"><path
             d="m 0,0 c -3.678,0 -6.689,3.508 -6.689,7.828 0,4.305 3.011,7.826 6.689,7.826 3.709,0 6.723,-3.521 6.723,-7.826 C 6.723,3.508 3.709,0 0,0 m 0,17.273 c -5.332,0 -9.688,-4.222 -9.688,-9.445 0,-5.23 4.356,-9.441 9.688,-9.441 5.359,0 9.699,4.211 9.699,9.441 0,5.223 -4.34,9.445 -9.699,9.445"
             style="fill:#4d9523;fill-opacity:1;fill-rule:nonzero;stroke:none"
             id="path28" /></g><g
           id="g30"
           transform="translate(707.8418,251.251)"><path
             d="m 0,0 c -3.715,0 -6.703,3.523 -6.703,7.836 0,4.314 2.988,7.818 6.703,7.818 3.691,0 6.693,-3.504 6.693,-7.818 C 6.693,3.523 3.691,0 0,0 m 0,17.254 c -5.359,0 -9.686,-4.201 -9.686,-9.418 0,-5.205 4.327,-9.445 9.686,-9.445 5.338,0 9.686,4.24 9.686,9.445 0,5.217 -4.348,9.418 -9.686,9.418"
             style="fill:#4d9523;fill-opacity:1;fill-rule:nonzero;stroke:none"
             id="path32" /></g><g
           id="g34"
           transform="translate(327.2813,266.1865)"><path
             d="m 0,0 c 1.211,-0.4 1.955,-0.338 2.199,-1.609 0.219,-1.264 0.85,-0.87 0.85,-0.87 1.029,-0.05 0.709,3.061 0.709,3.061 -0.524,0.447 -2.953,0.912 -2.953,0.912 -12.951,2.707 -13.307,-9.496 -13.307,-9.496 0.457,-5.994 4.963,-7.498 4.963,-7.498 5.342,-2 10.492,0.068 10.492,0.068 1.352,1.381 0.615,1.846 0.615,1.846 -2.009,-1.391 -5.57,-1.094 -5.57,-1.094 -9.799,1.717 -6.068,11.17 -6.068,11.17 C -6.387,0.709 -1.213,0.393 0,0"
             style="fill:#4d9523;fill-opacity:1;fill-rule:nonzero;stroke:none"
             id="path36" /></g><g
           id="g38"
           transform="translate(731.5527,257.1396)"><path
             d="m 0,0 v -1.035 c 1.604,0 1.992,-0.801 1.992,-0.801 0.592,-3.643 -1.705,-3.797 -1.705,-3.797 -0.926,-0.049 -1.635,0 -1.635,0 -9.781,1.717 -6.045,11.17 -6.045,11.17 1.696,4.219 6.629,4.367 8.805,3.633 C 2.625,8.74 3.391,8.811 3.611,7.553 3.855,6.289 4.531,6.225 4.531,6.225 5.561,6.174 5.17,9.756 5.17,9.756 4.65,10.193 2.242,10.664 2.242,10.664 -12.514,13.248 -11.813,1.045 -11.813,1.045 c 0.467,-5.994 4.932,-7.498 4.932,-7.498 l 1.217,-0.443 C 1.541,-8.682 5.17,-5.93 5.17,-5.93 l 0.182,4.268 C 6.154,-0.725 5.625,0 5.625,0 Z"
             style="fill:#4d9523;fill-opacity:1;fill-rule:nonzero;stroke:none"
             id="path40" /></g><g
           id="g42"
           transform="translate(617.1563,266.1865)"><path
             d="m 0,0 c 1.244,-0.4 1.979,-0.338 2.197,-1.609 0.227,-1.264 0.873,-0.87 0.873,-0.87 1.035,-0.05 0.7,3.061 0.7,3.061 -0.516,0.447 -2.946,0.912 -2.946,0.912 -12.957,2.707 -13.301,-9.496 -13.301,-9.496 0.454,-5.994 4.95,-7.498 4.95,-7.498 5.359,-2 10.476,0.068 10.476,0.068 1.399,1.381 0.641,1.846 0.641,1.846 -2.031,-1.391 -5.572,-1.094 -5.572,-1.094 -9.799,1.717 -6.061,11.17 -6.061,11.17 C -6.357,0.709 -1.199,0.393 0,0"
             style="fill:#4d9523;fill-opacity:1;fill-rule:nonzero;stroke:none"
             id="path44" /></g><g
           id="g46"
           transform="translate(351.5938,267.6357)"><path
             d="m 0,0 c -2.033,-0.352 -6.07,0 -6.07,0 l 0.091,-1.057 c 1.225,-0.17 1.42,-1.541 1.42,-1.541 l -0.304,-4.9 -8.453,0.174 0.171,4.621 c 0.067,1.422 1.45,1.599 1.45,1.599 l 0.218,1.149 c -0.841,-0.113 -6.56,0 -6.56,0 L -18,-1.002 c 1.066,-0.17 1.467,-1.021 1.467,-1.021 v -11.272 c -0.11,-2.883 -1.723,-2.949 -1.723,-2.949 v -1.211 c 0.67,0.232 6.561,0.105 6.561,0.105 v 1.106 l -0.35,0.17 c -1.033,0.301 -1.398,1.334 -1.398,1.334 l 0.189,5.562 h 8.461 v -4.648 c -0.07,-2.762 -1.449,-2.6 -1.449,-2.6 -0.11,-0.797 -0.164,-0.967 -0.164,-0.967 1.613,0.289 6.566,-0.062 6.566,-0.062 v 1.166 c -0.451,0.16 -1.14,0.564 -1.555,1.254 -0.396,0.678 0,11.228 0.172,12.547 0.188,1.316 1.383,1.384 1.383,1.384 C 0.391,0.045 0,0 0,0"
             style="fill:#4d9523;fill-opacity:1;fill-rule:nonzero;stroke:none"
             id="path48" /></g><g
           id="g50"
           transform="translate(641.4336,267.6357)"><path
             d="m 0,0 c -2.033,-0.352 -6.063,0 -6.063,0 l 0.055,-1.057 c 1.272,-0.17 1.449,-1.541 1.449,-1.541 l -0.304,-4.9 -8.446,0.174 0.147,4.621 c 0.078,1.422 1.449,1.599 1.449,1.599 l 0.236,1.149 c -0.859,-0.113 -6.57,0 -6.57,0 l 0.072,-1.047 c 1.022,-0.17 1.412,-1.021 1.412,-1.021 v -11.272 c -0.078,-2.883 -1.722,-2.949 -1.722,-2.949 v -1.211 c 0.73,0.232 6.572,0.105 6.572,0.105 v 1.106 l -0.334,0.17 c -1.037,0.301 -1.385,1.334 -1.385,1.334 l 0.164,5.562 h 8.469 v -4.648 c -0.064,-2.762 -1.428,-2.6 -1.428,-2.6 -0.117,-0.797 -0.177,-0.967 -0.177,-0.967 1.605,0.289 6.558,-0.062 6.558,-0.062 v 1.166 c -0.465,0.16 -1.144,0.564 -1.564,1.254 -0.383,0.678 0,11.228 0.187,12.547 0.188,1.316 1.377,1.384 1.377,1.384 C 0.383,0.045 0,0 0,0"
             style="fill:#4d9523;fill-opacity:1;fill-rule:nonzero;stroke:none"
             id="path52" /></g><g
           id="g54"
           transform="translate(360.2715,266.3096)"><path
             d="M 0,0 C 0.701,0.1 0.584,0.391 0.584,0.391 V 1.078 C 0.584,1.543 0.299,1.371 0.299,1.371 -2.135,0.852 -6.084,1.258 -6.084,1.258 L -6.162,0.223 -5.693,0.154 C -4.535,0 -4.535,-1.035 -4.535,-1.035 v -12.223 c -0.131,-1.781 -1.86,-1.842 -1.86,-1.842 v -1.097 c 1.385,0.47 6.913,0 6.913,0 v 1.394 l -0.469,0.055 c -1.07,0.301 -1.07,1.09 -1.07,1.09 V -1.377 C -1.021,-0.059 0,0 0,0"
             style="fill:#4d9523;fill-opacity:1;fill-rule:nonzero;stroke:none"
             id="path56" /></g><g
           id="g58"
           transform="translate(421.1387,266.3096)"><path
             d="m 0,0 c 0.697,0.1 0.564,0.391 0.564,0.391 v 0.687 c 0,0.465 -0.259,0.293 -0.259,0.293 -2.448,-0.519 -6.42,-0.113 -6.42,-0.113 L -6.154,0.223 -5.711,0.154 c 1.18,-0.154 1.18,-1.189 1.18,-1.189 v -12.223 c -0.117,-1.781 -1.85,-1.842 -1.85,-1.842 v -1.097 c 1.381,0.47 6.91,0 6.91,0 v 1.394 l -0.465,0.055 c -1.105,0.301 -1.105,1.09 -1.105,1.09 V -1.377 C -1.041,-0.059 0,0 0,0"
             style="fill:#4d9523;fill-opacity:1;fill-rule:nonzero;stroke:none"
             id="path60" /></g><g
           id="g62"
           transform="translate(494.3281,266.3096)"><path
             d="M 0,0 C 0.688,0.1 0.574,0.391 0.574,0.391 V 1.078 C 0.574,1.543 0.281,1.371 0.281,1.371 -2.143,0.852 -6.115,1.258 -6.115,1.258 L -6.17,0.223 -5.697,0.154 C -4.543,0 -4.543,-1.035 -4.543,-1.035 V -13.258 C -4.676,-15.039 -6.398,-15.1 -6.398,-15.1 v -1.097 c 1.386,0.47 6.904,0 6.904,0 v 1.394 l -0.438,0.055 c -1.121,0.301 -1.121,1.09 -1.121,1.09 V -1.377 C -1.053,-0.059 0,0 0,0"
             style="fill:#4d9523;fill-opacity:1;fill-rule:nonzero;stroke:none"
             id="path64" /></g><g
           id="g66"
           transform="translate(386.6484,272.5205)"><path
             d="M 0,0 V -1.277 C 1.736,-1.326 2.133,-2.703 2.133,-2.703 L 1.846,-15.955 c -0.069,-1.149 -0.571,-4.324 -6.039,-4.375 -5.477,-0.055 -5.651,3.855 -5.651,3.855 0,0 0.352,12.733 0.283,13.704 -0.041,0.974 1.963,1.697 1.963,1.697 V 0.281 L -8.924,0.215 c -1.785,-0.262 -6.846,0.066 -6.846,0.066 l -0.171,-1.252 0.347,-0.054 c 1.365,-0.252 1.602,-1.631 1.602,-1.631 l -0.043,-14.211 c 0.043,-1.5 1.078,-6 9.492,-6 8.398,0 8.586,6.762 8.586,6.762 l 0.437,13.22 c 0,1.28 2.09,1.559 2.09,1.559 L 6.512,0.172 Z"
             style="fill:#4d9523;fill-opacity:1;fill-rule:nonzero;stroke:none"
             id="path68" /></g><g
           id="g70"
           transform="translate(408.127,267.6357)"><path
             d="M 0,0 0.188,-1.002 C 1.1,-1.057 1.623,-1.85 1.623,-1.85 L 1.498,-10.611 C 1.553,-12.514 1.045,-11.59 1.045,-11.59 L -8.801,0.107 c -1.849,-0.175 -4.912,0 -4.912,0 l -0.154,-0.974 h 0.219 c 1.048,0.275 1.322,-1.213 1.322,-1.213 0,0 -0.102,-10.139 -0.17,-11.402 -0.045,-1.258 0.31,-1.553 -0.342,-2.291 -0.633,-0.756 -1.101,-0.653 -1.101,-0.653 l 0.072,-0.797 h 4.652 l 0.186,0.858 -0.647,0.291 c -0.746,0.349 -1.146,0.861 -1.146,0.861 l 0.281,11.285 c 0,0.75 0.703,0.049 0.703,0.049 l 11.164,-13.644 1.961,0.173 v 14.924 c 0.291,1.1 1.43,1.49 1.43,1.49 L 4.607,0.107 C 4.193,-0.248 0,0 0,0"
             style="fill:#4d9523;fill-opacity:1;fill-rule:nonzero;stroke:none"
             id="path72" /></g><g
           id="g74"
           transform="translate(657.9434,267.6357)"><path
             d="M 0,0 0.17,-1.002 C 1.094,-1.057 1.6,-1.85 1.6,-1.85 L 1.514,-10.611 C 1.559,-12.514 1.029,-11.59 1.029,-11.59 L -8.813,0.107 c -1.851,-0.175 -4.884,0 -4.884,0 l -0.18,-0.974 h 0.225 c 1.039,0.275 1.326,-1.213 1.326,-1.213 0,0 -0.11,-10.139 -0.164,-11.402 -0.061,-1.258 0.273,-1.553 -0.334,-2.291 -0.639,-0.756 -1.108,-0.653 -1.108,-0.653 l 0.055,-0.797 h 4.658 l 0.196,0.858 -0.623,0.291 c -0.772,0.349 -1.176,0.861 -1.176,0.861 l 0.295,11.285 c 0,0.75 0.693,0.049 0.693,0.049 l 11.152,-13.644 1.977,0.173 v 14.924 c 0.283,1.1 1.435,1.49 1.435,1.49 L 4.607,0.107 C 4.217,-0.248 0,0 0,0"
             style="fill:#4d9523;fill-opacity:1;fill-rule:nonzero;stroke:none"
             id="path76" /></g><g
           id="g78"
           transform="translate(435.1426,266.6338)"><path
             d="M 0,0 0.738,-0.102 C 1.883,-0.17 1.357,-1.668 1.357,-1.668 l -4.132,-9.945 -4.204,10.535 c -0.468,1.023 1.377,1.441 1.377,1.441 L -5.547,1.17 H -5.943 C -7.26,0.863 -12.336,1.219 -12.336,1.219 V 0.066 c 0.65,0.069 1.162,-0.75 1.326,-0.914 0.164,-0.173 1.559,-2.996 2.028,-4.189 0.457,-1.234 4.447,-11.129 4.447,-11.129 h 2.119 l 0.803,2.236 c 0,0 4.463,11.223 4.918,12.444 0.459,1.207 1.736,1.552 1.736,1.552 V 1.273 L -0.068,1.109 Z"
             style="fill:#4d9523;fill-opacity:1;fill-rule:nonzero;stroke:none"
             id="path80" /></g><g
           id="g82"
           transform="translate(452.4785,253.4619)"><path
             d="m 0,0 c -0.516,-1.326 -1.213,-1.439 -1.213,-1.439 -5.355,-0.868 -5.185,0.472 -5.185,0.472 v 6.03 l 5.377,0.242 c 0,0 0.333,0.457 0.781,1.207 0.459,0.748 -0.694,0.562 -0.694,0.562 -4.48,-0.689 -5.464,0 -5.464,0 v 3.221 c 0.058,1.975 0.929,2.139 0.929,2.139 0,0 3.039,0.246 4.088,0.054 1.029,-0.164 1.029,-1.433 1.029,-1.433 0.467,-0.809 1.319,-0.059 1.319,-0.059 v 3.223 c 0,0.226 -0.461,0.172 -0.461,0.172 C -2.32,14 -11.275,14.342 -11.275,14.342 c 0,0 -0.405,-1.104 -0.051,-1.104 0.334,0 1.369,0.196 1.601,-1.425 0.227,-1.618 0.11,-10.153 0.11,-10.153 -0.11,-0.394 -0.11,-2.746 -0.516,-3.26 -0.396,-0.515 -0.691,-0.47 -0.691,-0.47 0,-1.149 0.359,-1.211 0.359,-1.211 1.426,0.164 11.43,0.232 11.43,0.232 C 1.254,-2.307 1.225,0.42 1.225,0.42 0.688,1.086 0,0 0,0"
             style="fill:#4d9523;fill-opacity:1;fill-rule:nonzero;stroke:none"
             id="path84" /></g><g
           id="g86"
           transform="translate(601.2773,253.4619)"><path
             d="m 0,0 c -0.518,-1.326 -1.207,-1.439 -1.207,-1.439 -5.356,-0.868 -5.186,0.472 -5.186,0.472 v 6.03 l 5.356,0.242 c 0,0 0.349,0.457 0.801,1.207 0.466,0.748 -0.67,0.562 -0.67,0.562 -4.496,-0.689 -5.487,0 -5.487,0 v 3.221 c 0.073,1.975 0.93,2.139 0.93,2.139 0,0 3.076,0.246 4.08,0.054 1.037,-0.164 1.037,-1.433 1.037,-1.433 0.461,-0.809 1.35,-0.059 1.35,-0.059 v 3.223 c 0,0.226 -0.484,0.172 -0.484,0.172 -2.834,-0.391 -11.797,-0.049 -11.797,-0.049 0,0 -0.42,-1.104 -0.047,-1.104 0.344,0 1.381,0.196 1.59,-1.425 0.248,-1.618 0.119,-10.153 0.119,-10.153 -0.119,-0.394 -0.119,-2.746 -0.53,-3.26 -0.4,-0.515 -0.695,-0.47 -0.695,-0.47 0,-1.149 0.352,-1.211 0.352,-1.211 1.457,0.164 11.492,0.232 11.492,0.232 C 1.268,-2.307 1.215,0.42 1.215,0.42 0.693,1.086 0,0 0,0"
             style="fill:#4d9523;fill-opacity:1;fill-rule:nonzero;stroke:none"
             id="path88" /></g><g
           id="g90"
           transform="translate(471.4219,251.7256)"><path
             d="m 0,0 c -3.094,2.084 -5.053,7.602 -5.053,7.602 3.446,1.449 3.901,3.576 3.938,4.798 0.092,1.19 -1.823,4.012 -4.926,3.782 -3.123,-0.227 -7.957,-0.055 -7.957,-0.055 l -1.09,-0.049 -0.105,-1.224 c 1.478,0.054 1.632,-1.024 1.632,-1.024 L -13.715,2.533 c 0.055,-3.262 -1.373,-2.752 -1.373,-2.752 l -0.17,-1.22 6.629,0.058 v 1.162 l -0.644,0.11 C -9.852,0 -10.248,1.17 -10.248,1.17 v 12.66 c -0.123,0.854 4.834,2.297 5.523,-1.799 0.702,-4.068 -3.947,-3.91 -3.947,-3.91 L -8.58,6.459 c 1.49,-1.67 4.779,-7.898 4.779,-7.898 H 0.52 C 0.918,-0.678 0,0 0,0"
             style="fill:#4d9523;fill-opacity:1;fill-rule:nonzero;stroke:none"
             id="path92" /></g><g
           id="g94"
           transform="translate(480.293,260.5361)"><path
             d="m 0,0 c -3.465,0.07 -3.73,2.488 -3.73,2.488 0,0 -0.756,3.162 3.209,3.508 3.966,0.363 3.56,-2.187 3.56,-2.187 H 4.078 L 4.543,6.58 c 0,0 -0.178,0.979 -4.932,1.022 -5.615,0.072 -6.529,-5.516 -6.529,-5.516 -0.094,-0.594 0.07,-1.217 0.07,-1.217 0.516,-3.221 4.153,-3.67 6.782,-3.564 2.654,0.105 2.539,-2.364 2.539,-2.364 0.396,-4.207 -3.977,-3.861 -3.977,-3.861 -3.801,0 -3.123,2.088 -3.123,2.088 l -0.443,0.496 c -0.586,0.582 -1.139,-0.461 -1.139,-0.461 l -0.246,-2.584 c 0,0 1.478,-1.721 5.123,-1.394 4.248,0.42 6.631,2.89 7.02,6.285 C 6.096,-1.1 3.445,-0.066 0,0"
             style="fill:#4d9523;fill-opacity:1;fill-rule:nonzero;stroke:none"
             id="path96" /></g><g
           id="g98"
           transform="translate(523.5684,267.4619)"><path
             d="m 0,0 -3.387,-5.451 c -1.234,-2.225 -1.535,-0.77 -1.535,-0.77 l -3.848,6.604 -5.058,-0.555 -0.164,0.555 C -17.523,0 -27.955,0.293 -27.955,0.293 l -0.318,-3.369 h 1.084 c 0.232,0.99 1.376,1.463 1.376,1.463 1.012,0.461 3.307,-0.082 3.307,-0.082 l -0.316,-12.133 c -0.061,-2.151 -1.979,-2.449 -1.979,-2.449 l -0.092,-0.772 h 7.455 v 1.07 l -0.458,0.079 c -1.237,0.242 -1.387,1.234 -1.387,1.234 l 0.297,13.127 1.377,0.066 c 2.853,0.243 2.711,-1.603 2.711,-1.603 h 0.978 v 1.756 c 2.391,0.299 3.082,-1.149 3.082,-1.149 l 4.074,-6.902 v -5.145 c -0.154,-1.695 -1.767,-1.927 -1.767,-1.927 l 0.072,-0.838 c 0.779,0.232 6.832,0.297 6.832,0.297 v 0.869 c -1.613,0.351 -1.76,1.533 -1.76,1.533 l -0.078,5.965 4.526,6.457 c 0.621,1.308 1.791,1.398 1.791,1.398 L 2.76,0.15 Z"
             style="fill:#4d9523;fill-opacity:1;fill-rule:nonzero;stroke:none"
             id="path100" /></g><g
           id="g102"
           transform="translate(753.7734,267.8252)"><path
             d="m 0,0 -2.723,0.16 -3.41,-5.764 c -1.238,-2.232 -1.551,-0.771 -1.551,-0.771 l -3.845,6.59 -4.475,-0.543 -0.096,-1.143 c 1.809,0.315 2.51,-1.144 2.51,-1.144 l 4.076,-6.916 v -5.147 c -0.334,-1.531 -1.722,-1.586 -1.722,-1.586 l 0.031,-1.175 c 0.762,0.224 6.764,0.027 6.764,0.027 l 0.048,1.127 c -1.613,0.383 -1.74,1.525 -1.74,1.525 l -0.164,5.524 4.443,6.966 c 0.624,1.297 1.924,1.342 1.924,1.342 z"
             style="fill:#4d9523;fill-opacity:1;fill-rule:nonzero;stroke:none"
             id="path104" /></g><g
           id="g106"
           transform="translate(554.957,267.6123)"><path
             d="m 0,0 -0.066,-0.912 c 0.992,0.068 1.308,-0.852 1.308,-0.852 v -12.132 c -0.097,-2.155 -1.369,-2.313 -1.369,-2.313 v -1.018 h 6.613 l 0.041,1.098 -1.156,0.85 c -0.986,0.613 -0.535,5.277 -0.535,5.277 l 5.447,0.246 0.178,1.617 -5.625,0.078 c 0,0 0,2.368 0.086,4.53 0.078,2.15 0.926,2.06 0.926,2.06 h 2.683 c 1.383,-0.152 1.596,-1.683 1.596,-1.683 l 1.158,0.086 0.25,3.363 -1.019,-0.063 C 8.756,0.232 0,0 0,0"
             style="fill:#4d9523;fill-opacity:1;fill-rule:nonzero;stroke:none"
             id="path108" /></g><g
           id="g110"
           transform="translate(588.2852,270.6748)"><path
             d="M 0,0 C 2.621,0.072 2.379,-2.221 2.379,-2.221 L 3.76,-2.17 V 2.15 L 3.445,2.389 C -3.07,1.607 -16.127,2.236 -16.127,2.236 l -0.467,-4.3 h 1.231 c 0,0.83 1.916,2.136 1.916,2.136 l 2.705,0.092 c 2.603,0.154 2.375,-1.154 2.375,-1.154 L -8.74,-16.734 c -0.17,-2.243 -2.471,-2.379 -2.471,-2.379 l -0.068,-1.225 h 9.754 l 0.13,1.317 -0.988,0.515 c -1.676,0.383 -1.457,0.711 -1.676,1.713 C -4.307,-15.801 -3.77,0 -3.77,0 Z"
             style="fill:#4d9523;fill-opacity:1;fill-rule:nonzero;stroke:none"
             id="path112" /></g><g
           id="g114"
           transform="translate(696.084,253.0049)"><path
             d="m 0,0 c -1.207,-1.352 -1.674,-0.982 -3.135,-0.982 -1.476,0 -2.31,-0.219 -2.703,0.923 -0.379,1.155 0.229,12.047 0.229,12.047 0.099,1.707 1.541,1.707 1.541,1.707 l -0.157,1.289 c -1.613,-0.234 -6.527,-0.144 -6.527,-0.144 -0.602,-0.309 -0.135,-1.076 -0.135,-1.076 0.912,0 1.53,-1.157 1.53,-1.157 0.761,-2.669 -0.235,-13.662 -0.235,-13.662 -1.295,-0.996 -0.383,-1.613 -0.383,-1.613 1.991,0.383 10.59,-0.078 10.59,-0.078 1.153,0.461 0.989,3.148 0.989,3.148 C 1.236,1.777 0,0 0,0"
             style="fill:#4d9523;fill-opacity:1;fill-rule:nonzero;stroke:none"
             id="path116" /></g><g
           id="g118"
           transform="translate(292.2207,252.4229)"><path
             d="m 0,0 c -4.221,3.35 -9.24,10.641 -9.24,10.641 l 2.789,3.011 c 3.17,3.862 6.908,5.119 6.908,5.119 1.84,1.28 -0.525,1.327 -0.525,1.327 h -4.438 c -2.875,-4.953 -5.943,-7.145 -8.008,-9.043 -2.078,-1.881 -1.261,-0.856 -1.261,-0.856 0,0 -0.125,5.643 0,6.959 0.109,1.334 1.908,1.553 1.908,1.553 1.478,1.504 -1.682,1.449 -1.682,1.449 h -5.121 c -2.416,0.055 -1.682,-0.982 -1.682,-0.982 0.118,-0.51 1.604,-0.155 2.024,-1.606 0.414,-1.459 0.055,-11.406 -0.051,-14.974 -0.113,-3.563 -0.869,-2.946 -1.674,-3.295 -0.808,-0.334 -1.148,-1.901 -0.113,-1.545 1.027,0.351 8.049,-0.178 8.346,0.062 0.281,0.225 0.349,1.028 -0.576,1.483 -0.911,0.465 -1.27,0.41 -1.614,1.681 -0.332,1.266 -0.117,5.756 0,6.567 0.11,0.803 1.035,0.453 1.035,0.453 1.272,-0.902 6.399,-7.102 7.196,-8.051 0.83,-0.984 1.953,-2.373 1.953,-2.373 0.763,0.24 5.422,0.109 5.422,0.109 0.345,-0.109 0.297,1.043 0.297,1.043 C 1.49,-1.076 0,0 0,0"
             style="fill:#4d9523;fill-opacity:1;fill-rule:nonzero;stroke:none"
             id="path120" /></g><g
           id="g122"
           transform="translate(164.166,240.2412)"><path
             d="m 0,0 c 42.988,0 77.838,25.676 77.838,57.332 0,31.682 -34.85,57.324 -77.838,57.324 -43.008,0 -77.861,-25.642 -77.861,-57.324 C -77.861,25.676 -43.008,0 0,0"
             style="fill:#4d9523;fill-opacity:1;fill-rule:nonzero;stroke:none"
             id="path124" /></g><g
           id="g126"
           transform="translate(114.625,330.5264)"><path
             d="m 0,0 h 19.129 v -1.615 h -4.611 v -26.031 l 10.601,9.679 v -2.308 l -8.062,-7.596 c 0,0 8.291,0.381 16.136,-9 6.897,-8.283 12.881,-17.266 20.034,-25.775 v -6.461 c 0,0 -7.381,-1.84 -18.661,15.425 -11.285,17.276 -12.898,22.573 -20.267,23.741 v -32.262 h 4.603 V -64.49 H -0.219 v 1.844 H 4.396 V -2.08 h -4.615 z"
             style="fill:#ffffff;fill-opacity:1;fill-rule:nonzero;stroke:none"
             id="path128" /></g><g
           id="g130"
           transform="translate(136.7363,338.5732)"><path
             d="m 0,0 h 14.518 v -45.607 c 0,0 -6.211,5.31 -9.434,8.304 v 35.471 h -5.299 z"
             style="fill:#ffffff;fill-opacity:1;fill-rule:nonzero;stroke:none"
             id="path132" /></g><g
           id="g134"
           transform="translate(141.8203,285.3721)"><path
             d="m 0,0 8.75,-13.822 c 0,0 -1.613,-15.647 7.844,-15.446 0,0 7.115,-0.201 11.261,5.553 L 27.65,38.459 h 8.745 v -66.801 h 5.99 v -1.836 H 28.563 v 4.139 c 0,0 -3.684,-5.524 -13.129,-5.754 C 5.998,-32.012 0.926,-24.873 0,-18.43 Z"
             style="fill:#ffffff;fill-opacity:1;fill-rule:nonzero;stroke:none"
             id="path136" /></g><g
           id="g138"
           transform="translate(152.6484,323.8311)"><path
             d="M 0,0 C 0,0 4.371,3.232 1.613,4.615 L 0.234,5.08 v 1.615 l 13.58,0.463 V 5.08 c 0,0 -5.992,-0.219 -13.814,-7.596 z"
             style="fill:#ffffff;fill-opacity:1;fill-rule:nonzero;stroke:none"
             id="path140" /></g><g
           id="g142"
           transform="translate(164.166,338.5732)"><path
             d="M 0,0 H 14.486 V -6.436 L 5.984,-7.584 5.756,-2.059 0,-1.832 Z"
             style="fill:#ffffff;fill-opacity:1;fill-rule:nonzero;stroke:none"
             id="path144" /></g><g
           id="g146"
           transform="translate(180.5273,260.499)"><path
             d="m 0,0 c 0,0 8.736,0.229 11.277,2.77 l 0.918,-0.93 c 0,0 -3.459,-3.928 -12.437,-3.459 z"
             style="fill:#ffffff;fill-opacity:1;fill-rule:nonzero;stroke:none"
             id="path148" /></g><g
           id="g150"
           transform="translate(161.8594,324.5283)"><path
             d="M 0,0 C 0,0 5.748,7.846 29.031,5.539 52.287,3.234 50.918,5.064 53.199,9.904 h 1.85 c 0,0 -0.68,-13.349 -15.428,-13.349 v -52.989 h 4.371 v -2.058 H 24.879 v 2.287 h 5.066 v 54.123 c 0,0 -7.599,1.84 -11.519,3.012 -3.924,1.142 -14.967,0 -18.658,-3.912 -3.69,-3.936 -10.373,-17.053 3.902,-21.207 v -1.141 c 0,0 -11.502,-0.229 -10.1,15.203 0,0 0.67,5.52 6.43,10.127"
             style="fill:#ffffff;fill-opacity:1;fill-rule:nonzero;stroke:none"
             id="path152" /></g><g
           id="g154"
           transform="translate(302.957,296.3721)"><path
             d="m 0,0 v 11.715 h 6.738 c 0,0 1.686,-0.096 1.686,-1.516 V 0 Z M 38.785,19.398 C 37.111,20.383 28.043,25.59 25.688,22.641 24.117,20.68 23.227,21.17 23.227,21.17 h -38.598 c -1.084,0 -1.959,0.307 -1.959,0.307 -2.981,1.814 -9.756,2.056 -9.756,2.056 -2.449,0.248 -2.17,-2.07 -2.17,-2.07 V -8.242 c 0,0 -0.297,-2.99 2.858,-2.293 3.513,0.765 10.435,1.668 10.435,4.521 v 24.33 h 38.504 c 0,0 1.873,-0.105 1.873,-1.683 L 24.414,0 c 0,0 0.684,-1.479 -1.476,-1.479 -1.172,0 -2.01,0.112 -2.547,0.221 v 8.893 c 0,0 -0.092,2.129 0.707,2.482 0.797,0.356 1.771,1.678 0.259,2.571 C 19.854,13.572 11.695,18.254 9.57,15.611 8.158,13.836 7.357,14.279 7.357,14.279 H 0.531 c -0.972,0 -1.761,0.278 -1.761,0.278 -2.68,1.632 -8.782,1.853 -8.782,1.853 -2.205,0.221 -1.955,-1.861 -1.955,-1.861 V -4.369 c 0,0 -0.328,-1.811 2.576,-1.645 3.239,0.196 8.895,1.016 9.346,3.358 h 8.469 v -0.592 c 0,0 -0.649,-2.471 2.693,-2.264 2.729,0.158 7.16,0.645 8.713,2.145 1.772,-0.824 4.348,-2.447 5.76,-4.807 1.473,-2.463 2.361,-2.658 5.515,-1.873 3.485,0.871 6.598,2.756 6.598,5.609 v 18.221 c 0,0 -0.099,2.362 0.781,2.762 0.893,0.387 1.977,1.863 0.301,2.853"
             style="fill:#2646a2;fill-opacity:1;fill-rule:nonzero;stroke:none"
             id="path156" /></g><g
           id="g158"
           transform="translate(314.1641,332.7334)"><path
             d="M 0,0 C 0,0 1.682,-0.088 1.682,-1.506 V -8.363 H -15.672 V 0 Z M 14.615,0.975 C 13.111,1.857 4.959,6.543 2.84,3.895 1.418,2.127 0.621,2.572 0.621,2.572 h -15.756 c -0.982,0 -1.767,0.276 -1.767,0.276 -2.68,1.634 -8.787,1.845 -8.787,1.845 -2.206,0.235 -1.95,-1.855 -1.95,-1.855 v -14.625 c 0,0 -0.328,-1.811 2.578,-1.639 2.758,0.16 7.27,0.781 8.834,2.405 H 1.641 c -0.045,-0.676 0.195,-2.057 2.73,-1.907 3.35,0.196 9.287,0.887 9.27,3.348 v 5.502 c 0,0 -0.086,2.125 0.711,2.482 0.8,0.356 1.773,1.684 0.263,2.571"
             style="fill:#2646a2;fill-opacity:1;fill-rule:nonzero;stroke:none"
             id="path160" /></g><g
           id="g162"
           transform="translate(412.9727,336.7158)"><path
             d="M 0,0 C 0,0 1.68,-0.088 1.68,-1.506 V -40.311 H -6.729 V 0 Z M 14.828,-1.352 C 15.221,0.355 14.619,0.973 14.619,0.973 13.109,1.855 4.957,6.549 2.838,3.893 1.42,2.125 0.619,2.566 0.619,2.566 h -6.818 c -0.975,0 -1.76,0.827 -1.76,0.827 -2.68,1.636 -8.785,1.847 -8.785,1.847 -2.205,0.229 -1.944,-1.859 -1.944,-1.859 v -50.069 c 0,0 -0.328,-1.798 2.563,-1.634 2.766,0.164 9.488,0.197 9.488,5.353 h 8.276 c -0.008,-2.203 -0.5,-5.941 2.953,-5.353 3.304,0.568 9.068,1.181 9.053,3.642 v 38.076 c 0,1.313 0.787,3.541 1.183,5.252"
             style="fill:#2646a2;fill-opacity:1;fill-rule:nonzero;stroke:none"
             id="path164" /></g><g
           id="g166"
           transform="translate(340.4961,342.8428)"><path
             d="m 0,0 c -1.707,0.658 -9.256,4.602 -11.561,1.969 l -2.293,-2.625 h -13.158 v 0.558 c 0,0.987 0.785,1.676 0.785,1.676 0,0 3.346,1.969 0.594,3.348 -2.758,1.377 -10.433,2.166 -12.506,2.265 -2.07,0.098 -1.877,-1.673 -1.877,-1.673 v -6.174 h -27.855 c -2.369,0 0,-2.621 0,-2.621 h 66.82 c 0,0 1.248,-0.2 2.237,0.785 C 2.166,-1.506 1.701,-0.656 0,0"
             style="fill:#2646a2;fill-opacity:1;fill-rule:nonzero;stroke:none"
             id="path168" /></g><g
           id="g170"
           transform="translate(390.4961,318.8877)"><path
             d="M 0,0 C 0,0 1.219,-0.1 1.939,0.689 2.883,1.711 2.072,2.783 1.055,3.275 -0.59,4.072 -5.611,6.99 -7.051,5.248 -9.285,2.564 -9.352,2.623 -9.352,2.623 h -0.994 c 1.012,4.49 1.696,9.535 1.922,15.201 h 6.701 c 0,0 1.219,-0.101 1.942,0.688 0.941,1.019 0.131,2.093 -0.895,2.586 -1.644,0.798 -6.654,3.715 -8.103,1.97 -2.229,-2.679 -2.295,-2.621 -2.295,-2.621 h -9.908 c 1.339,2.51 1.279,2.182 1.968,2.522 0.784,0.398 2.256,1.187 0.588,2.367 -1.674,1.184 -15.263,8.957 -13.879,3.053 0,0 -0.496,-14.176 -5.517,-22.455 0,0 -2.561,-5.215 3.15,-0.686 5.098,4.049 9.801,8.795 12.223,12.576 h 1.179 c -0.087,-1.502 -0.529,-7.492 -2.027,-15.201 h -12.262 c -2.363,0 0,-2.623 0,-2.623 h 11.727 c -2.137,-9.906 -5.996,-21.941 -12.906,-30.926 0,0 -2.5,-3.402 1.972,-0.908 2.977,1.662 13.286,7.158 20.118,21.705 1.101,-1.67 3.076,-5.225 4.425,-10.812 1.965,-8.137 13.786,-6.832 11.821,3.148 -1.403,7.074 -9.196,12.035 -13.621,14.328 0.369,1.113 0.718,2.262 1.035,3.465 z"
             style="fill:#2646a2;fill-opacity:1;fill-rule:nonzero;stroke:none"
             id="path172" /></g><g
           id="g174"
           transform="translate(503.7168,295.1924)"><path
             d="m 0,0 c -1.705,0.652 -8.236,4.295 -10.541,1.666 -2.293,-2.619 -2.945,-2.881 -2.945,-2.881 h -12.118 v 44.897 h 21.989 c 0,0 1.254,-0.196 2.234,0.787 0.992,0.984 0.524,1.836 -1.182,2.498 -1.705,0.654 -8.251,4.594 -10.552,1.967 l -2.297,-2.629 h -47.506 c -2.361,0 0,-2.623 0,-2.623 h 22.549 V -1.215 h -24.326 c -2.362,0 0,-2.631 0,-2.631 H 0.146 c 0,0 1.043,0 2.018,0.981 C 3.148,-1.877 1.705,-0.662 0,0"
             style="fill:#2646a2;fill-opacity:1;fill-rule:nonzero;stroke:none"
             id="path176" /></g><g
           id="g178"
           transform="translate(589.9395,312.8174)"><path
             d="m 0,0 c -1.49,0.438 -4.238,2.557 -5.182,0.215 -1.121,-2.768 -2.382,-2.613 -2.382,-2.613 l -0.082,-0.028 v 30.385 c 0,0.789 0.392,1.873 0.984,2.559 0.592,0.691 3.836,2.267 0.592,3.443 -3.252,1.187 -10.145,2.271 -12.405,2.365 -2.269,0.104 -1.777,-2.853 -1.777,-2.853 V -5.619 l -22.09,-5.613 c -2.283,-0.586 0.656,-2.543 0.656,-2.543 l 21.434,5.515 v -16.26 c 0,0 -0.297,-3.253 2.361,-2.957 3.139,0.352 10.245,0.788 10.245,4.137 v 18.324 l 5.97,1.534 c 0,0 3.545,0.587 4.143,1.507 C 2.945,-1.203 1.742,-0.531 0,0"
             style="fill:#2646a2;fill-opacity:1;fill-rule:nonzero;stroke:none"
             id="path180" /></g><g
           id="g182"
           transform="translate(553.373,325.2861)"><path
             d="m 0,0 c 0,0 1.248,-0.199 2.236,0.791 0.989,0.982 0,1.701 -1.379,2.389 -1.394,0.697 -5.57,3.888 -7.584,1.381 C -8.588,2.244 -9.676,2.625 -9.676,2.625 h -2.074 v 8.801 c 0.904,0.185 1.801,0.396 2.654,0.617 0,0 2.862,0.986 3.844,0.596 0.99,-0.401 3.154,-0.696 2.361,1.279 -0.779,1.963 -6.005,12.504 -8.959,9.258 0,0 -9.447,-7.881 -24.81,-12.319 0,0 -2.268,-0.877 1.084,-1.275 1.715,-0.201 6.07,-0.219 11.226,0.154 V 2.625 h -12.019 c -2.363,0 0,-2.625 0,-2.625 h 10.529 c -0.721,-2.123 -5.049,-14.219 -13.281,-24.68 0,0 -2.465,-3.05 1.084,-1.476 2.637,1.168 9.418,6.099 13.687,10.982 v -21.814 c 0,0 -0.289,-3.254 2.364,-2.957 3.144,0.349 10.236,0.787 10.236,4.129 v 23.718 c 0.738,-0.757 1.715,-2.004 2.074,-3.527 0.58,-2.561 3.149,-6.205 7.772,-4.432 4.543,1.737 3.859,11.159 -9.846,17.459 V 0 Z"
             style="fill:#2646a2;fill-opacity:1;fill-rule:nonzero;stroke:none"
             id="path184" /></g><g
           id="g186"
           transform="translate(549.9922,321.876)"><path
             d="m 0,0 c 0,0 3.74,-3.057 5.514,-7.49 1.777,-4.426 6.107,-5.412 7.185,-5.412 1.098,0 4.731,0.789 5.119,3.644 C 18.223,-6.4 17.234,-3.744 12.9,-0.697 8.57,2.363 -3.346,3.148 0,0"
             style="fill:#2646a2;fill-opacity:1;fill-rule:nonzero;stroke:none"
             id="path188" /></g><g
           id="g190"
           transform="translate(551.377,343.3389)"><path
             d="m 0,0 c 0,0 3.244,-6.596 3.941,-8.574 0.688,-1.963 3.149,-6.793 7.772,-5.805 4.625,0.988 5.221,8.367 -2.955,13.594 0,0 -2.26,1.967 -7.574,2.754 0,0 -3.553,0.685 -1.184,-1.969"
             style="fill:#2646a2;fill-opacity:1;fill-rule:nonzero;stroke:none"
             id="path192" /></g><g
           id="g194"
           transform="translate(672.9824,292.9287)"><path
             d="m 0,0 c -1.23,0.654 -23.936,11.883 -33.988,33.24 0.084,0.598 0.15,1.219 0.218,1.84 h 26.086 c 0,0 1.248,-0.195 2.235,0.785 0.984,0.987 0.517,1.844 -1.19,2.498 -1.705,0.651 -9.256,4.596 -11.549,1.969 l -2.302,-2.623 h -13.061 c 0.17,2.666 0.194,5.486 0.069,8.471 0,0 0.197,-0.889 0,0.582 -0.196,1.48 1.082,3.256 1.48,3.549 0.393,0.296 4.131,1.669 -1.092,3.539 -5.213,1.871 -12.006,2.271 -13.291,2.171 -1.279,-0.099 -0.818,-1.38 -0.818,-1.38 0,0 1.486,-7.213 0.687,-16.932 h -26.283 c -2.367,0 0,-2.629 0,-2.629 h 26.024 c -1.664,-13.793 -8.172,-31.451 -29.053,-41.092 0,0 -2.16,-1.576 0.799,-1.576 2.504,0 32.236,3.551 39.851,34.473 0.809,-4.877 4.573,-19.922 21.453,-33.553 0,0 1.508,-1.416 2.989,-0.523 1.472,0.888 9.347,4.429 11.125,5.117 C 2.156,-1.385 1.277,-0.697 0,0"
             style="fill:#2646a2;fill-opacity:1;fill-rule:nonzero;stroke:none"
             id="path196" /></g><g
           id="g198"
           transform="translate(697.1289,338.4463)"><path
             d="M 0,0 C 1.84,-1.975 5.578,-4.334 8.859,-2.104 12.148,0.129 9.318,6.365 3.418,8.135 -2.494,9.908 -8.527,9.58 -6.828,7.617 -6.828,7.617 -1.832,1.969 0,0"
             style="fill:#2646a2;fill-opacity:1;fill-rule:nonzero;stroke:none"
             id="path200" /></g><g
           id="g202"
           transform="translate(710.5898,340.4209)"><path
             d="m 0,0 c 0.783,-1.912 3.289,-5.783 7.414,-5.26 0,0 3.684,0.133 3.619,4.795 -0.076,4.658 -7.222,10.174 -14.187,10.77 0,0 -1.44,-0.198 -0.196,-1.776 0,0 2.752,-7.093 3.35,-8.529"
             style="fill:#2646a2;fill-opacity:1;fill-rule:nonzero;stroke:none"
             id="path204" /></g><g
           id="g206"
           transform="translate(752.9922,333.7881)"><path
             d="m 0,0 c -1.705,1.113 -9.324,6.369 -11.414,3.674 0,0 -0.865,-0.721 -1.707,-1.904 -0.621,-0.858 -1.182,-1.182 -2.693,-1.182 h -11.457 c 3.986,1.314 9.164,3.461 12.968,6.103 0,0 1.182,0.856 2.096,1.055 0.926,0.199 2.361,0.785 1.574,1.965 -0.781,1.187 -11.422,8.014 -12.342,5.121 0,0 -5.082,-10.746 -9.132,-14.244 h -30.584 c -0.561,1.738 -1.541,4.24 -2.95,5.642 0,0 -1.777,2.301 -2.232,-0.589 0,0 -1.049,-4.657 -4.922,-11.028 -3.879,-6.361 1.572,-10.498 3.678,-10.498 2.064,0 9.152,0.389 7.058,13.91 h 47.42 c 0,0 1.45,0.073 0.92,-1.246 -0.492,-1.248 -1.595,-4.265 -4.334,-7.043 -1.558,1.575 -3.23,3.162 -3.769,3.567 -0.938,0.687 -1.823,0.49 -2.461,0.191 -0.647,-0.293 -2.022,-1.521 -3.057,-2.258 -1.035,-0.738 -3.105,-0.611 -3.105,-0.611 h -26.76 c -2.365,0 0,-2.627 0,-2.627 h 27.016 c -1.42,-2.412 -5.75,-5.059 -6.631,-5.574 -2.192,0.461 -4.207,0.859 -4.994,0.967 -1.901,0.261 -1.637,-0.524 -1.637,-0.524 v -6.664 h -26.067 c -2.351,0 0,-2.625 0,-2.625 h 26.067 v -8.369 c 0,0 0.06,-0.725 0.06,-1.574 0,-0.86 -1.377,-1.121 -1.377,-1.121 0,0 -5.113,0.136 -8.267,0 -3.149,-0.131 -0.264,-1.641 -0.264,-1.641 5.182,-1.902 8.467,-7.285 9.584,-8.668 1.117,-1.373 4.203,-0.848 8.996,0.863 4.785,1.705 4.59,8.073 4.59,8.073 v 12.437 h 24.09 c 0,0 1.248,-0.195 2.232,0.787 0.989,0.983 0.311,2.192 -1.381,2.885 -5.017,2.068 -7.933,4.207 -10.236,1.578 l -2.301,-2.625 h -12.232 c 0.225,0.848 0.687,1.256 1.6,1.998 1.445,1.184 0.136,2.035 -1.108,2.496 -0.25,0.096 -0.81,0.244 -1.558,0.426 3.933,0.766 6.845,1.723 8.951,2.578 2.908,1.184 4.084,0.893 6.056,0.397 1.977,-0.494 2.016,1.084 0.692,2.707 -0.328,0.396 -0.828,0.949 -1.41,1.566 0.38,0.096 0.804,0.219 1.31,0.4 5.123,1.774 9.916,4.334 11.559,6.301 1.638,1.975 2.361,1.903 3.281,2.365 C 0.328,-2.104 1.711,-1.117 0,0"
             style="fill:#2646a2;fill-opacity:1;fill-rule:nonzero;stroke:none"
             id="path208" /></g></g></g><text
       xml:space="preserve"
       transform="matrix(0.75000002,0,0,-0.75000002,0,595.28002)"
       id="text37602"
       style="font-size:18.6667px;line-height:1.25;font-family:'A-OTF UD黎ミン Pr6N';-inkscape-font-specification:'A-OTF UD黎ミン Pr6N';letter-spacing:0px;word-spacing:0px;white-space:pre;shape-inside:url(#rect37604);display:inline" /><g
       aria-label="ゲーム開発サークル（非公認）"
       transform="scale(1,-1)"
       id="text2369"
       style="font-size:75.2922px;line-height:1.45;font-family:'A-OTF UD黎ミン Pr6N';-inkscape-font-specification:'A-OTF UD黎ミン Pr6N';text-align:center;letter-spacing:0px;word-spacing:0px;text-anchor:middle;stroke-width:4.0335"><path
         d="m 903.96733,-311.67592 c 0,-4.29166 -6.62571,-6.17396 -11.36912,-6.17396 -1.12938,0 -1.9576,0.0753 -2.9364,0.22588 1.88231,1.27996 4.29166,2.93639 6.32455,5.27045 3.23756,3.76461 3.61402,4.14107 5.04458,4.14107 1.65642,0 2.93639,-1.73172 2.93639,-3.46344 z m -8.58331,2.71052 c 0,-5.72221 -11.21854,-6.55042 -14.53139,-6.39984 1.58113,1.12938 4.44224,3.31286 6.77629,6.02338 2.55994,3.08698 3.08698,3.76461 4.81871,3.76461 1.8823,0 2.93639,-1.9576 2.93639,-3.38815 z m 2.25877,11.67029 c 0,-3.68932 -4.894,-6.17396 -9.56211,-6.17396 -1.20468,0 -7.00218,2.03289 -8.28214,2.33406 -7.22805,1.73172 -12.79968,1.95759 -19.12422,2.25876 0.15058,-0.30117 0.22587,-0.37646 0.60234,-0.9035 2.33405,-3.08698 2.55993,-3.38815 3.61402,-4.36695 1.88231,-1.73172 2.10818,-1.88231 2.10818,-3.16227 0,-3.9152 -8.13155,-8.65861 -11.82087,-8.65861 -0.45176,0 -3.23757,0 -6.24926,1.80702 3.16228,1.80701 4.06578,2.78581 4.06578,4.96928 0,2.25877 -1.65642,5.64692 -2.48464,7.45393 -2.8611,5.87279 -7.7551,15.73607 -14.38081,22.36178 l 0.37646,0.52705 c 11.36912,-5.04458 15.5102,-9.56211 20.17831,-15.05844 0.52705,0.67763 1.50585,1.9576 2.48464,1.9576 0.67763,0 5.34575,-0.60234 6.32455,-0.67763 0.9788,0.9035 1.35526,1.65642 1.35526,3.23756 0,1.65643 -0.90351,7.00217 -3.23757,12.79967 -5.27045,13.40201 -14.75727,20.47948 -19.04892,23.49117 l 0.22587,0.37646 c 13.85377,-3.46344 24.62055,-9.03506 31.54744,-27.40636 0.67762,-1.8823 1.8823,-4.96928 2.33405,-5.34575 2.18348,-1.65642 2.25877,-1.73172 2.25877,-2.55993 0,-2.25877 -4.29166,-4.36695 -6.55042,-5.27045 4.74341,-0.30117 8.20685,-0.30117 9.11035,-0.30117 1.27997,0 7.45393,0.30117 8.80919,0.30117 1.05409,0 5.34575,0 5.34575,-3.99049 z"
         style="font-family:'A-OTF リュウミン Pr6N U-KL';-inkscape-font-specification:'A-OTF リュウミン Pr6N U-KL'"
         id="path389" /><path
         d="m 972.63382,-285.7754 c 0,-4.96929 -6.92689,-6.70101 -10.46562,-6.70101 -1.27997,0 -2.71052,0.82821 -3.53873,0.9788 -1.12939,0.15058 -29.13808,0.9035 -30.49334,0.9035 -9.41153,0 -10.91737,-1.05409 -12.49851,-5.42103 -1.95759,3.46344 -2.78581,5.49633 -2.78581,7.37863 0,3.16227 3.9152,10.01386 7.22805,10.01386 0.37646,0 4.14107,-0.82821 4.96929,-1.05409 3.08698,-0.67763 13.40201,-1.73172 20.93123,-1.73172 4.29165,0 12.34792,0 16.11253,0.22588 0.75292,0.0753 5.49633,0.30117 5.64691,0.30117 4.06578,0 4.894,-3.31286 4.894,-4.89399 z"
         style="font-family:'A-OTF リュウミン Pr6N U-KL';-inkscape-font-specification:'A-OTF リュウミン Pr6N U-KL'"
         id="path391" /><path
         d="m 1045.5167,-267.17823 c 0,-11.36912 -13.0256,-21.08182 -23.0394,-23.56646 1.7317,2.40935 5.421,7.45393 7.8303,14.98315 -7.3786,0.60234 -10.315,0.75292 -27.1804,1.50584 7.1527,-8.28214 7.4539,-8.6586 17.543,-23.86762 1.8071,-2.71052 2.56,-3.61403 3.3882,-4.36695 1.8823,-1.80702 2.1082,-2.03289 2.1082,-3.01169 0,-3.08698 -6.4752,-10.16445 -12.7997,-10.16445 -2.1082,0 -4.9693,0.82822 -6.174,1.20468 2.4094,1.27997 4.5176,2.40935 4.5176,5.11987 0,4.14107 -4.8187,20.10301 -11.3692,35.16145 -4.66807,0.15059 -6.55038,0.15059 -9.48677,-3.46344 -0.90351,2.10818 -1.27997,3.38815 -1.27997,4.96929 0,4.89399 3.99049,12.27263 7.07747,12.27263 0.82821,0 1.35526,-0.22588 2.71052,-0.9788 0.75295,-0.37646 4.29165,-1.43055 4.81865,-1.58114 8.1316,-2.18347 16.0373,-4.36695 27.0299,-9.48682 0.5271,1.88231 0.9788,4.44224 1.1294,5.42104 0.4518,3.46344 0.9035,7.45393 6.0987,7.45393 4.3669,0 7.0775,-3.8399 7.0775,-7.60451 z"
         style="font-family:'A-OTF リュウミン Pr6N U-KL';-inkscape-font-specification:'A-OTF リュウミン Pr6N U-KL'"
         id="path393" /><path
         d="m 1093.1013,-273.50278 v 4.74341 c 0,2.18348 -0.527,12.64909 -0.527,15.05844 0,1.05409 0.3011,1.58114 2.1835,1.58114 2.0328,0 5.1951,-0.52705 8.1315,-1.65643 2.0329,-0.82821 2.4094,-1.43055 2.4094,-3.53873 0,-0.75293 -0.1506,-4.29166 -0.2259,-5.11987 3.087,3.23756 3.614,7.30334 3.3881,13.4773 4.1411,0 8.5081,-0.90351 12.1221,-2.8611 4.141,-2.18348 4.2916,-5.72221 4.2916,-11.44442 v -45.47648 c 3.5388,-1.9576 3.9152,-2.18348 3.9152,-3.16228 0,-0.60233 -0.7529,-1.27996 -1.3552,-1.73172 l -9.1104,-6.701 c -0.4517,-0.30117 -0.9788,-0.75293 -1.9576,-0.75293 -0.8282,0 -1.4305,0.60234 -1.7317,1.0541 l -2.7105,4.14107 h -4.2164 l -13.2514,-4.29166 v 14.83256 c 0,1.73172 -0.2259,10.08916 -0.2259,11.97146 0,1.80702 0.2259,2.25877 1.8823,2.25877 1.1294,0 3.0117,-0.30117 4.7434,-0.67763 l -3.614,4.74341 h -13.5526 c -2.5599,0 -6.3998,-0.15059 -8.8845,-0.45176 l 1.2047,2.63523 c 0.6023,-0.15058 1.6564,-0.30117 3.614,-0.37646 v 9.93857 h -5.3457 c 0,-4.29165 -0.075,-15.20902 -0.075,-19.42539 h 4.9693 v 0.75293 c 0,1.35526 0,2.55993 2.334,2.55993 4.2164,0 9.8633,-1.8823 10.1645,-4.44224 0.075,-0.30117 0,-12.87496 0,-14.30552 1.1294,-0.37646 2.7105,-1.12938 2.7105,-2.48464 0,-0.60234 -0.4518,-1.05409 -0.9788,-1.43055 l -8.0563,-5.7975 c -0.7529,-0.52705 -1.4305,-0.9788 -2.1082,-0.9788 -0.6023,0 -0.9035,0.37646 -1.2799,0.90351 l -2.9364,4.06578 h -3.4635 l -14.4561,-4.894 c 0.6777,5.34575 0.6777,13.85377 0.6777,19.72656 0,4.96928 -0.075,20.63006 -0.4518,37.87197 0,1.50585 -0.2259,8.95978 -0.2259,10.6915 0,1.50584 0,3.01169 3.1623,3.01169 1.7317,0 8.4327,-1.0541 9.6374,-3.9152 0.3765,-0.90351 0.3765,-2.8611 0.3765,-20.10302 h 5.3457 v 1.05409 c 0,11.97146 -3.3128,16.33841 -5.3457,18.59718 l 0.527,0.52704 c 12.875,-4.44224 15.5102,-10.76678 15.7361,-20.17831 z m 16.7149,-6.62571 c -0.6776,-0.60234 -0.9035,-0.82821 -1.4306,-0.82821 -0.4517,0 -0.6776,0.22587 -0.9788,0.9035 l -1.8823,4.74341 h -0.6023 c 0,-3.46344 -0.075,-6.17396 -0.075,-10.01386 h 5.5716 c 0.3765,0 1.1294,0 1.1294,-0.82822 0,-0.52704 -0.3764,-0.9035 -0.7529,-1.12938 l -6.9269,-5.04458 c -0.1506,-0.15058 -0.2259,-0.15058 -0.3765,-0.30116 1.6565,-0.60234 3.4635,-1.20468 3.4635,-2.10819 h 5.3457 v 16.94075 z m 2.4846,-16.4137 h -5.3457 v -8.43273 h 5.3457 z m 0,23.03941 v 6.55043 c 0,2.18347 -0.6776,2.71051 -3.3881,2.71051 -1.2047,0 -2.5599,-0.15058 -3.8399,-0.22587 -0.075,-1.35526 -0.1506,-4.29166 -0.1506,-9.03507 z m -19.1995,-11.82087 v 10.01386 h -2.4846 v -10.01386 z m 19.1995,-21.45828 h -5.3457 v -7.30334 h 5.3457 z m -33.1285,-7.30334 v 7.30334 h -4.9693 v -7.30334 z m 0,9.11035 v 8.43273 h -4.9693 v -8.43273 z"
         style="font-family:'A-OTF リュウミン Pr6N U-KL';-inkscape-font-specification:'A-OTF リュウミン Pr6N U-KL'"
         id="path395" /><path
         d="m 1205.5126,-298.19862 -0.1506,-0.67763 c -6.4751,-0.82821 -12.875,-3.31285 -14.3055,-3.91519 2.7858,-1.20468 7.4539,-3.23757 8.4327,-3.61403 1.9576,-0.22587 3.0117,-0.37646 3.0117,-1.35526 0,-0.67763 -0.4518,-0.9035 -0.8282,-1.12938 l -8.8092,-4.59282 c 0.6776,-0.37646 0.7529,-0.75293 0.7529,-0.90351 0,-0.30117 -0.2259,-0.45175 -1.0541,-0.90351 l -12.122,-6.24925 c -0.6776,2.55994 -2.7858,7.00218 -4.2164,9.71269 -3.5387,-3.38814 -5.5716,-7.15275 -6.8516,-9.41152 l -0.6776,0.22588 c 0.6023,3.38815 2.1835,12.04675 8.6586,20.63006 l -4.3669,5.87279 h -18.3713 -0.5271 c 2.1082,-1.73172 6.8516,-6.55042 12.2726,-15.13373 1.0541,-0.22588 4.2917,-0.82822 4.2917,-2.55994 0,-0.60233 -0.3012,-0.82821 -1.0541,-1.50584 l -7.8304,-7.00217 c -0.527,-0.52705 -0.9035,-0.82822 -1.7317,-0.82822 -0.3012,0 -0.7529,0.0753 -1.0541,0.37646 l -4.2916,4.59283 h -11.2186 c -1.3552,0 -4.9693,-0.0753 -8.8845,-0.37646 l 1.2047,2.55993 c 1.1294,-0.22588 2.2588,-0.37646 6.3246,-0.37646 h 12.122 c -0.527,1.8823 -0.9788,3.53873 -2.7105,7.45393 -3.0117,-4.36695 -11.2186,-5.19516 -14.9832,-5.49633 l -0.4517,0.60233 c 2.8611,3.38815 2.9364,3.68932 4.7434,10.6162 1.1294,4.21637 3.614,3.99049 5.1199,3.9152 -3.8399,4.8187 -8.1316,9.33623 -13.0256,13.10084 l 0.5271,0.60234 c 6.0986,-1.80701 11.8961,-4.51753 17.2419,-8.05627 -0.075,9.56211 -0.075,10.6162 -0.1506,12.72438 h -7.0775 c -0.527,0 -4.5928,0 -8.8845,-0.37646 l 1.2047,2.55994 c 1.28,-0.22588 2.1835,-0.37646 6.3246,-0.37646 h 8.3574 c -0.3765,9.6374 -2.3341,19.04892 -17.6184,27.9334 l 0.3012,0.67763 c 21.1571,-4.51753 29.2134,-11.67029 30.1922,-28.61103 h 5.948 v 17.84425 c 0,6.85159 2.6353,9.11035 10.9174,9.11035 11.068,0 11.8209,0 14.682,-0.30116 7.1527,-0.75293 8.8092,-6.47513 8.8092,-8.95978 0,-3.91519 -2.7858,-4.96928 -4.6681,-5.7222 -0.9035,-0.30117 -1.28,-1.12939 -1.5812,-4.21637 -0.1506,-1.58113 -0.3011,-3.08698 -0.3764,-4.66811 l -0.6777,-0.0753 c -1.2799,3.53873 -4.2163,8.88447 -5.1951,9.78798 -0.9788,0.90351 -2.1082,0.9788 -6.0234,0.9788 -2.4094,0 -3.2376,-0.22588 -3.2376,-2.10818 v -11.67029 h 18.4466 c 0.3765,0 1.2047,0 1.2047,-0.90351 0,-0.52704 -0.6023,-0.9788 -0.8282,-1.12938 l -8.6586,-6.62572 c -0.3765,-0.30116 -0.9035,-0.60233 -1.4306,-0.60233 -0.3011,0 -0.6776,0.0753 -1.1294,0.75292 l -4.5175,6.701 h -3.087 v -13.40201 h 2.8611 c 6.5505,5.34575 9.5621,6.92689 12.1974,8.13156 0.3764,-1.9576 2.2587,-10.54091 8.508,-13.62789 z m -16.6396,-13.92905 c -1.5811,3.46344 -2.1082,4.51753 -3.5387,6.85159 -1.807,-0.90351 -3.2376,-1.73172 -4.894,-2.9364 2.1082,-0.90351 5.5716,-2.33406 8.4327,-3.91519 z m -19.576,32.82739 h -5.7975 c 0.075,-3.08698 0.1506,-5.79749 0.1506,-13.40201 h 5.6469 z"
         style="font-family:'A-OTF リュウミン Pr6N U-KL';-inkscape-font-specification:'A-OTF リュウミン Pr6N U-KL'"
         id="path397" /><path
         d="m 1277.4919,-293.22933 c 0,-4.66812 -6.4751,-7.52922 -9.5621,-7.52922 -0.6023,0 -1.0541,0 -3.9152,0.82821 -1.5811,0.45176 -1.9576,0.45176 -4.7434,0.82822 0.3765,-4.8187 0.5271,-5.94809 0.9035,-7.30335 0.1506,-0.67763 1.28,-3.8399 1.28,-4.36694 0,-3.16228 -7.0022,-5.64692 -10.6162,-5.64692 -4.5175,0 -6.8516,2.25877 -8.2069,3.53873 6.5505,0.0753 6.6258,3.23757 6.8516,14.68198 -8.0562,0.75292 -8.9597,0.90351 -11.6703,1.12939 0.075,-3.76461 0.1506,-4.14108 0.2259,-5.04458 0.1506,-0.75292 1.2047,-4.21636 1.2047,-5.04458 0,-3.08698 -6.174,-5.57162 -10.9174,-5.57162 -3.3881,0 -5.3457,1.9576 -6.701,3.38815 6.6257,1.35526 6.7763,3.01169 7.0022,13.25142 -3.3129,0.30117 -9.0351,0.90351 -9.788,0.90351 -3.5387,0 -4.7434,-1.73172 -6.3245,-5.04458 -0.5271,1.27997 -1.28,3.23757 -1.28,5.7975 0,5.42104 3.7646,9.86328 6.0234,9.86328 0.9788,0 1.9576,-0.37646 3.6893,-1.12938 4.1411,-1.80702 5.4963,-2.25877 7.4539,-2.78581 -0.075,1.05409 -0.2259,3.53873 -0.3764,5.34574 -0.075,0.75292 -0.6777,4.66812 -0.6777,5.57163 0,3.68931 4.2917,6.77629 7.454,6.77629 3.0869,0 3.0869,-3.53873 3.0869,-5.49633 0,-2.03289 -0.3011,-11.97146 -0.3011,-14.15493 4.7434,-0.67763 7.6798,-0.90351 11.8961,-1.12938 -0.3764,20.32889 -4.141,29.74041 -11.8208,39.45311 l 0.3011,0.30117 c 3.7646,-1.80702 19.1242,-9.03507 20.4042,-27.85812 0.1506,-1.65642 0.4518,-10.01386 0.5271,-11.89616 5.4963,0.37646 8.0562,0.82821 10.2397,1.43055 0.9035,0.30117 4.3669,1.20467 4.9693,1.20467 2.4846,0 3.3881,-2.78581 3.3881,-4.29165 z"
         style="font-family:'A-OTF リュウミン Pr6N U-KL';-inkscape-font-specification:'A-OTF リュウミン Pr6N U-KL'"
         id="path399" /><path
         d="m 1349.0948,-285.7754 c 0,-4.96929 -6.9269,-6.70101 -10.4656,-6.70101 -1.28,0 -2.7105,0.82821 -3.5388,0.9788 -1.1293,0.15058 -29.138,0.9035 -30.4933,0.9035 -9.4115,0 -10.9174,-1.05409 -12.4985,-5.42103 -1.9576,3.46344 -2.7858,5.49633 -2.7858,7.37863 0,3.16227 3.9152,10.01386 7.228,10.01386 0.3765,0 4.1411,-0.82821 4.9693,-1.05409 3.087,-0.67763 13.402,-1.73172 20.9313,-1.73172 4.2916,0 12.3479,0 16.1125,0.22588 0.7529,0.0753 5.4963,0.30117 5.6469,0.30117 4.0658,0 4.894,-3.31286 4.894,-4.89399 z"
         style="font-family:'A-OTF リュウミン Pr6N U-KL';-inkscape-font-specification:'A-OTF リュウミン Pr6N U-KL'"
         id="path401" /><path
         d="m 1419.5683,-297.3704 c 0,-0.60234 -0.3011,-1.20468 -0.6023,-1.50585 -0.7529,-0.75292 -2.3341,-2.03289 -8.3574,-6.92688 -0.3765,-0.30117 -0.9036,-0.60234 -1.5059,-0.60234 -0.9035,0 -2.4846,1.27997 -4.2916,2.71052 -0.9035,0.75292 -7.0775,1.12939 -8.4328,1.20468 1.1294,-1.65643 1.3553,-1.80702 3.087,-3.01169 1.1294,-0.75292 1.3553,-1.35526 1.3553,-2.10818 0,-0.90351 -0.3765,-1.43055 -1.5059,-2.33406 -3.5387,-2.9364 -7.6798,-5.34575 -12.2726,-5.34575 -1.807,0 -2.6352,0.45176 -4.6681,1.43056 2.4093,1.12938 4.0658,2.18347 4.0658,4.89399 0,2.40935 -6.4752,16.4137 -18.2208,29.28866 l 0.3765,0.45176 c 8.5833,-3.83991 17.8443,-10.91737 23.7923,-17.99484 0.9036,0.90351 1.5812,1.50585 2.4847,1.50585 1.3552,0 8.2821,-1.65643 8.4327,-1.65643 0.3765,0 0.5271,0.0753 1.0541,0.30117 -6.701,15.58548 -18.6725,31.39684 -36.2908,42.76596 l 0.075,0.37647 c 22.7382,-6.17396 36.4414,-18.22072 46.9823,-38.6249 0.6023,-1.20468 0.8282,-1.35526 1.7317,-1.9576 2.4847,-1.65643 2.7105,-1.80701 2.7105,-2.8611 z"
         style="font-family:'A-OTF リュウミン Pr6N U-KL';-inkscape-font-specification:'A-OTF リュウミン Pr6N U-KL'"
         id="path403" /><path
         d="m 1503.6697,-295.03634 -0.3012,-0.45176 c -9.9385,12.72438 -24.7711,21.00653 -27.0299,21.00653 -0.8282,0 -1.1294,-0.52705 -1.1294,-1.12939 0,-2.25876 0.5271,-13.25142 0.6024,-15.73607 0.3011,-6.85159 0.7529,-8.73389 1.1294,-10.31503 0.1505,-0.67763 1.2799,-3.8399 1.2799,-4.59282 0,-3.46344 -9.1103,-7.00218 -12.2726,-7.00218 -2.6352,0 -4.7434,1.9576 -5.7975,2.86111 6.0987,0.52704 6.3998,2.40935 6.3998,18.89834 0,3.08698 0.075,11.89617 -0.3764,15.73607 -0.075,0.67763 -1.4306,4.44224 -1.4306,5.64691 0,2.18348 4.2917,11.89617 7.5292,11.89617 0.3765,0 0.753,-0.0753 1.2047,-0.37646 0.2259,-0.15059 1.4306,-1.12938 1.7317,-1.35526 13.1009,-9.26094 21.5336,-15.20902 28.4605,-35.08616 z m -41.1848,-2.10819 c 0,-4.44224 -7.981,-7.45392 -10.7668,-7.45392 -2.7105,0 -5.3458,1.73172 -6.9269,2.71052 5.1952,1.43055 5.7222,3.61402 5.7222,8.73389 0,6.39984 -1.4306,26.35227 -14.4561,38.02256 l 0.3765,0.52705 c 20.7053,-9.86328 23.3405,-23.86763 24.7711,-37.49552 0.075,-0.75292 1.28,-4.21636 1.28,-5.04458 z"
         style="letter-spacing:-48px"
         id="path405" /><path
         d="m 1531.0372,-249.93632 c -10.0139,-11.36912 -12.7997,-21.91003 -12.7997,-35.38733 0,-13.4773 2.7858,-24.01821 12.7997,-35.38733 l -0.753,-1.0541 c -3.0117,1.9576 -19.2748,13.40202 -19.2748,36.59201 0,19.72656 12.6491,31.9239 19.2748,36.29084 z"
         style="font-family:'A-OTF リュウミン Pr6N U-KL';-inkscape-font-specification:'A-OTF リュウミン Pr6N U-KL'"
         id="path407" /><path
         d="m 1609.2658,-270.86755 c 0,-0.45175 -0.2259,-0.67763 -0.8282,-1.20467 l -8.9598,-8.13156 c -0.7529,-0.67763 -0.9035,-0.82822 -1.3553,-0.82822 -0.3764,0 -0.6776,0.0753 -1.2046,0.90351 l -4.8187,8.35743 h -3.9905 l -0.2259,-15.3596 h 17.2419 c 0.4518,0 1.1294,-0.0753 1.1294,-0.82822 0,-0.45175 -0.1506,-0.60234 -0.7529,-1.20467 l -7.7551,-7.60452 c -0.6776,-0.60233 -0.8282,-0.9035 -1.3553,-0.9035 -0.4517,0 -0.7529,0.22587 -1.1294,0.9035 l -4.4422,7.83039 h -2.9364 c -0.075,-3.31285 -0.075,-3.8399 -0.075,-8.73389 v -5.87279 h 18.5972 c 0.4517,0 1.1294,-0.0753 1.1294,-0.82822 0,-0.45175 -0.1506,-0.60234 -0.753,-1.20467 l -8.2068,-8.05627 c -0.6023,-0.60234 -0.8282,-0.82821 -1.3553,-0.82821 -0.527,0 -0.9035,0.30117 -1.2046,0.82821 l -4.367,8.28214 h -3.8399 v -9.93857 c 2.4847,-1.20467 2.9364,-1.58113 2.9364,-2.40935 0,-0.9788 -0.6776,-1.20467 -2.1082,-1.43055 l -15.3596,-2.63523 c 1.5812,5.27046 1.5812,17.99484 1.5812,24.39468 0,3.16227 0,4.44224 -0.1506,15.88665 -3.0117,0.37646 -4.9693,0.60234 -6.8516,0.75292 0.3011,-5.19516 0.3011,-7.45392 0.3011,-33.20386 2.3341,-0.9788 3.2376,-1.35526 3.2376,-2.48464 0,-1.12938 -0.9788,-1.43055 -2.334,-1.73172 l -15.5855,-3.08698 c 1.2046,5.27045 1.2799,10.6162 1.4305,15.88665 h -8.8845 c -0.6023,0 -4.9692,0 -8.8844,-0.37646 l 1.2046,2.55994 c 1.5812,-0.22588 2.6353,-0.37646 6.3246,-0.37646 h 10.2397 l 0.1506,10.99266 h -6.3245 c -0.2259,0 -5.3458,0 -8.8845,-0.37646 l 1.2047,2.55993 c 1.3552,-0.22588 2.4846,-0.37646 6.3245,-0.37646 h 7.7551 c 0,2.8611 0.075,5.42104 -0.2259,10.99266 -6.8516,0.45175 -15.0584,0.67763 -17.016,0.67763 -0.9788,0 -1.5059,-0.0753 -2.4847,-0.22588 l 4.7435,15.05844 c 0.3011,1.05409 0.527,1.58114 1.3552,1.58114 1.28,0 1.5811,-0.67763 2.3341,-2.55993 1.5811,-0.52705 3.7646,-1.27997 9.4868,-3.76461 -1.2047,4.14107 -3.5387,11.89616 -17.3172,18.89834 l 0.075,0.67763 c 3.1622,-0.37646 8.8092,-1.12939 16.0372,-4.59283 11.2185,-5.34574 14.0044,-14.4561 15.209,-21.75944 1.807,-0.90351 5.1952,-2.63523 7.3787,-3.99049 -0.1506,14.5314 -0.1506,15.4349 -0.3765,20.55477 -0.075,2.03289 -0.4517,5.34575 -0.4517,7.37864 0,1.73172 0.3011,2.71052 2.8611,2.71052 2.5599,0 7.6045,-1.35526 9.8632,-2.63523 1.7318,-0.9788 1.8823,-1.73172 1.8823,-3.16227 0,-2.18348 -0.3764,-12.72438 -0.3764,-15.05844 h 19.9524 c 0.4518,0 1.2047,-0.0753 1.2047,-0.90351 z"
         style="font-family:'A-OTF リュウミン Pr6N U-KL';-inkscape-font-specification:'A-OTF リュウミン Pr6N U-KL'"
         id="path409" /><path
         d="m 1684.558,-293.68109 v -0.60233 c -19.6513,-4.36695 -25.0723,-12.64909 -27.4064,-16.33841 3.3129,-0.37646 9.7127,-1.05409 9.7127,-3.8399 0,-0.67763 -0.6023,-1.20468 -1.0541,-1.50585 l -9.1856,-5.11987 c -0.9788,-0.52704 -1.2047,-0.60233 -1.5812,-0.60233 -0.527,0 -0.9035,0.22587 -1.2799,0.67763 l -4.1411,4.96928 h -3.0117 c -1.9576,0 -3.9152,-0.15058 -5.8728,-0.37646 l 1.2047,2.55994 c 1.7317,-0.37647 3.614,-0.37647 4.2163,-0.37647 h 7.9057 c 2.1835,20.3289 10.8421,28.15929 19.5007,34.10737 2.7858,-7.7551 4.5175,-9.78799 10.9927,-13.5526 z m -41.0343,-13.92905 c 0,-0.75292 -0.6023,-1.05409 -1.28,-1.43055 l -15.2843,-7.52922 c -1.2046,10.08915 -9.1856,27.18048 -15.8866,34.7097 l 0.2259,0.60234 c 13.0255,-5.34575 20.8559,-13.47731 27.8581,-24.24409 2.1082,-0.15058 4.3669,-0.82821 4.3669,-2.10818 z m 32.7521,49.46697 c 0,-8.13156 -8.4327,-15.58548 -23.717,-20.32889 l -0.4518,0.67763 c 2.3341,3.08698 4.7434,6.7763 6.8516,11.82087 -4.2163,0.22588 -7.228,0.22588 -10.6162,0.22588 -5.6469,0 -8.9598,-0.0753 -14.6067,-0.22588 4.367,-4.29165 11.8962,-13.92905 16.6396,-22.51236 2.4846,-0.37646 3.3129,-0.45176 3.3129,-1.50585 0,-0.75292 -0.3765,-0.9035 -1.5812,-1.20467 l -16.5643,-4.66812 c 0.2259,5.72221 -3.9904,21.68415 -6.7763,29.74042 -8.6586,-0.22588 -9.6374,-0.22588 -13.7031,-0.90351 l 5.1951,15.73607 c 0.4518,1.27997 0.5271,1.58114 1.2047,1.58114 0.9035,0 1.4306,-1.27997 1.5811,-1.88231 10.5409,-2.63522 25.1476,-6.701 36.8932,-11.89616 0.3765,1.12938 2.1835,7.00217 2.6352,8.28214 0.9035,2.8611 1.7318,5.11987 6.2493,5.11987 4.894,0 7.4539,-4.36695 7.4539,-8.05627 z"
         style="font-family:'A-OTF リュウミン Pr6N U-KL';-inkscape-font-specification:'A-OTF リュウミン Pr6N U-KL'"
         id="path411" /><path
         d="m 1758.6455,-312.05238 c 0,-0.60234 -0.5271,-1.20468 -1.3553,-1.80701 l -8.8845,-6.70101 c -0.527,-0.37646 -0.9788,-0.60234 -1.5058,-0.60234 -0.4518,0 -0.9035,0.15059 -1.28,0.67763 l -2.8611,4.36695 h -17.4678 c -2.2587,0 -5.5716,-0.0753 -8.8845,-0.37646 l 1.2047,2.55993 c 1.9576,-0.30117 3.3129,-0.37646 7.0775,-0.37646 -0.075,1.43055 -0.1506,4.06578 -0.2259,5.34575 -3.087,-0.52705 -4.9693,-0.82822 -8.5833,-1.27997 v 0.60234 c 1.6564,0.9788 4.4422,2.63523 7.9057,7.00217 -1.1294,8.20685 -3.3129,15.66078 -10.9927,23.34058 l 0.5271,0.37647 c 6.3245,-3.53874 12.4985,-7.52922 16.7901,-13.40202 0.4518,0.67763 1.2047,1.73172 3.3882,1.73172 0.8282,0 1.2799,-0.15058 1.7317,-0.30116 0.8282,1.58113 2.4093,5.87279 2.1835,9.78798 15.3596,0.15059 17.1666,-5.64691 17.9948,-28.15928 2.4846,-1.35526 3.2376,-1.80701 3.2376,-2.78581 z m -15.6608,-2.25877 c -0.075,1.9576 -0.2259,10.39033 -0.3765,12.12205 -0.527,7.07746 -0.8282,7.07746 -3.2375,7.30334 0.1505,-0.52705 0.3764,-1.27997 0.3764,-2.55994 0,-4.36694 -2.5599,-6.39983 -4.0658,-7.52922 0.6024,-2.8611 1.0541,-6.39983 1.0541,-9.33623 z m 16.0372,50.89753 c 0,-8.95977 -9.6374,-12.72438 -15.2843,-14.98315 l -0.4517,0.52705 c 2.5599,3.99048 3.1622,9.48681 3.1622,12.04675 v 3.53873 c -0.4517,-0.30117 -2.4093,-1.58113 -2.7858,-1.9576 -0.9035,-0.97879 -1.1294,-2.40935 -1.2799,-3.8399 h -0.6777 c -1.5058,5.11987 -1.807,5.11987 -5.1951,5.11987 -0.3012,0 -1.6565,0 -2.0329,-0.67763 -0.1506,-0.30117 -0.1506,-3.53873 -0.1506,-5.34574 4.4422,0.67763 6.6257,-3.16228 6.6257,-5.7975 0,-4.36695 -4.4422,-7.45393 -7.981,-8.28215 -3.0117,-0.67763 -5.7222,-0.67763 -7.7551,-0.75292 v 0.67763 c 2.3341,2.40935 4.2917,6.92688 4.6681,8.13156 l -7.3786,-2.10818 c 0.5271,3.99048 0.6776,8.05626 0.7529,12.19733 -0.8282,-3.38814 -2.5599,-6.55042 -3.3128,-8.05626 h -0.6024 c -1.1293,5.04458 -2.1081,6.17396 -4.9692,9.33623 v -7.98097 c 1.054,-0.67763 2.6352,-1.65643 2.6352,-2.10818 0,-0.45176 -0.4518,-0.90351 -1.28,-1.58114 l -5.1199,-4.29165 c -0.6776,-0.52705 -0.9788,-0.90351 -1.6564,-0.90351 -0.527,0 -0.7529,0.30117 -0.9788,0.60234 l -3.2375,4.36694 h -2.4094 l -11.7456,-4.21636 v 20.02773 c 0,3.16227 -0.1506,8.73389 0,9.41152 0.2259,0.90351 1.2047,1.27997 2.3341,1.20468 1.5058,-0.0753 8.6586,-0.9788 9.1856,-3.53874 0.1506,-0.82821 0.1506,-4.89399 0.1506,-5.7222 h 2.6352 c 0,0.82821 -0.075,4.36694 -0.075,4.8187 0,1.43055 0.3765,2.10818 1.5059,2.10818 1.3552,0 4.9693,-1.12939 6.8516,-2.71052 1.2047,1.05409 2.7105,1.05409 3.2375,1.05409 5.1952,0 6.3999,-4.06578 6.8516,-5.57162 0.075,4.51753 0.075,5.04457 0.5271,6.17396 1.0541,2.55993 2.2587,2.55993 11.4444,2.55993 7.3786,0 9.8633,0 12.2726,-3.8399 0.3012,-0.45175 0.9788,-1.65643 1.2047,-3.46344 0.527,0.37646 1.5058,0.9788 3.3881,0.9788 3.5388,0 6.9269,-2.78581 6.9269,-7.15276 z m -54.1351,3.23756 h -2.6352 v -13.55259 h 2.6352 z m 9.9386,-55.03859 c 0,-0.22588 0,-0.45176 -0.6776,-1.05409 l -5.5716,-4.894 c -0.9036,-0.82821 -1.2047,-0.9035 -1.5059,-0.9035 -0.3012,0 -0.6023,0.0753 -1.0541,0.9035 l -2.6352,5.04458 h -3.1623 c -0.6023,0 -4.9693,-0.0753 -8.8845,-0.45175 l 1.2047,2.63522 c 1.5812,-0.30117 2.6352,-0.37646 6.3246,-0.37646 h 14.7572 c 0.6777,0 1.2047,-0.15058 1.2047,-0.9035 z m 3.3882,10.01386 c 0,-0.45175 -0.3765,-0.82822 -0.753,-1.20468 l -5.7975,-5.19516 c -0.9035,-0.82821 -1.1293,-0.82821 -1.4305,-0.82821 -0.3765,0 -0.6024,0.15058 -1.1294,0.9035 l -3.7646,5.34575 h -9.3362 c -0.3012,0 -5.4211,-0.0753 -8.8845,-0.37646 l 1.2047,2.55993 c 1.2046,-0.22587 2.4093,-0.37646 6.3245,-0.37646 h 22.4371 c 0.4517,0 1.1294,-0.0753 1.1294,-0.82821 z m -3.3882,9.86328 c 0,-0.22588 0,-0.52705 -0.7529,-1.12939 l -5.1199,-4.21636 c -0.3764,-0.30117 -1.1294,-0.75292 -1.5811,-0.75292 -0.2259,0 -0.5271,0 -1.0541,0.75292 l -3.3129,4.36695 h -3.8399 c -0.2258,0 -5.3457,0 -8.8845,-0.37646 l 1.2047,2.63522 c 1.0541,-0.22587 2.1082,-0.45175 6.3246,-0.45175 h 15.8866 c 0.4518,0 1.1294,0 1.1294,-0.82821 z m -0.075,10.23974 c 0,-0.45176 -0.3764,-0.90351 -0.6776,-1.20468 l -5.4211,-4.89399 c -0.7529,-0.67763 -0.9788,-0.82822 -1.4305,-0.82822 -0.5271,0 -0.7529,0.30117 -1.1294,0.82822 l -3.6893,5.11987 h -3.2376 c -0.6023,0 -4.9693,-0.0753 -8.8845,-0.37646 l 1.2047,2.55993 c 1.6565,-0.30117 2.6353,-0.37646 6.3246,-0.37646 h 15.8113 c 0.6024,0 1.1294,-0.15058 1.1294,-0.82821 z"
         style="font-family:'A-OTF リュウミン Pr6N U-KL';-inkscape-font-specification:'A-OTF リュウミン Pr6N U-KL'"
         id="path413" /><path
         d="m 1784.6213,-285.17307 c 0,-23.18999 -16.2631,-34.63441 -19.2748,-36.59201 l -0.7529,1.0541 c 10.0138,11.36912 12.7997,21.91003 12.7997,35.38733 0,13.4773 -2.7859,24.01821 -12.7997,35.38733 l 0.7529,1.05409 c 6.6257,-4.36694 19.2748,-16.56428 19.2748,-36.29084 z"
         style="font-family:'A-OTF リュウミン Pr6N U-KL';-inkscape-font-specification:'A-OTF リュウミン Pr6N U-KL'"
         id="path415" /></g></g></svg>
